<?xml version="1.0" standalone="no"?>
<!DOCTYPE svg PUBLIC "-//W3C//DTD SVG 20010904//EN"
 "http://www.w3.org/TR/2001/REC-SVG-20010904/DTD/svg10.dtd">
<svg version="1.0" xmlns="http://www.w3.org/2000/svg"
 width="70.000000pt" height="70.000000pt" viewBox="0 0 70.000000 70.000000"
 preserveAspectRatio="xMidYMid meet">
<metadata>
Created by potrace 1.14, written by Peter Selinger 2001-2017
</metadata>
<g transform="translate(0.000000,70.000000) scale(0.100000,-0.100000)"
fill="#000000" stroke="none">
<path d="M307 679 c11 -13 9 -15 -7 -14 -11 1 -22 4 -25 7 -9 8 -45 -3 -45
-14 0 -5 -6 -8 -12 -7 -31 4 -41 -1 -30 -14 8 -10 5 -13 -16 -12 -18 0 -26 -5
-24 -14 2 -9 -3 -11 -15 -7 -9 4 -15 4 -11 1 8 -9 -23 -45 -34 -39 -4 3 -5 -3
-1 -12 4 -12 3 -15 -5 -10 -11 6 -17 -12 -13 -36 0 -5 -4 -7 -11 -5 -6 1 -12
-10 -12 -25 -1 -14 -5 -30 -10 -35 -5 -5 -6 -2 -1 6 6 10 4 12 -4 7 -9 -6 -9
-11 1 -24 10 -12 10 -14 1 -8 -20 11 -15 -12 5 -24 16 -11 16 -11 -1 -6 -20 6
-22 -4 -4 -23 7 -9 7 -11 1 -8 -7 4 -14 1 -16 -6 -7 -16 2 -38 12 -32 4 3 6
-4 3 -15 -3 -11 1 -28 8 -37 12 -14 12 -16 -1 -8 -8 4 -4 -4 10 -19 22 -24 22
-26 5 -21 -19 6 -19 6 -3 -8 10 -8 18 -16 18 -19 0 -11 100 -104 100 -94 1 6
7 0 14 -13 9 -15 16 -20 20 -12 5 8 12 7 22 -4 9 -8 20 -13 25 -10 5 4 9 1 9
-6 0 -8 5 -7 17 2 14 12 16 12 9 0 -6 -9 -5 -12 5 -9 8 3 22 1 32 -4 9 -5 23
-5 30 -1 6 4 21 8 32 8 11 0 26 4 33 8 6 5 12 5 12 1 0 -4 7 1 16 12 8 10 13
13 9 7 -4 -9 -1 -11 9 -7 9 3 16 10 16 15 0 5 5 9 11 9 5 0 7 -5 3 -12 -4 -7
-3 -8 4 -4 7 4 12 14 12 22 0 8 4 14 9 14 17 0 93 78 87 89 -4 6 -2 11 4 11 6
0 8 4 5 10 -3 5 -1 10 4 10 6 0 11 9 11 19 0 11 5 23 11 27 8 4 7 9 -2 15 -11
7 -11 9 -1 9 7 0 11 4 7 9 -3 5 -1 12 3 15 5 3 7 17 5 31 -3 13 -9 22 -14 19
-5 -3 -6 2 -3 10 3 9 11 13 18 9 6 -4 5 1 -2 10 -8 9 -11 21 -7 27 3 5 1 10
-4 10 -6 0 -10 6 -8 13 1 6 -4 11 -12 9 -9 -2 -11 3 -7 13 7 19 -11 52 -42 78
-12 10 -19 23 -16 29 4 7 2 8 -4 4 -7 -4 -12 -2 -12 3 0 6 -7 11 -16 11 -8 0
-12 5 -9 10 3 6 -2 10 -13 10 -10 0 -28 9 -40 20 -13 13 -23 16 -28 9 -4 -7
-16 -2 -32 13 -14 13 -22 18 -19 11 8 -12 -53 -10 -75 3 -10 6 -11 5 -1 -7z"/>
<path d="M110 135 c13 -14 26 -25 28 -25 3 0 -5 11 -18 25 -13 14 -26 25 -28
25 -3 0 5 -11 18 -25z"/>
</g>
</svg>
